<?xml version="1.0" encoding="UTF-8" standalone="no"?><!DOCTYPE svg PUBLIC "-//W3C//DTD SVG 1.1//EN" "http://www.w3.org/Graphics/SVG/1.1/DTD/svg11.dtd"><svg width="100%" height="100%" viewBox="0 0 240 240" version="1.1" xmlns="http://www.w3.org/2000/svg" xmlns:xlink="http://www.w3.org/1999/xlink" xml:space="preserve" style="fill-rule:evenodd;clip-rule:evenodd;stroke-linecap:round;stroke-linejoin:round;stroke-miterlimit:1.41421;"><g><g><path d="M120,18.886c0,0 -12.522,-6.534 -14.972,-6.389c-62.823,3.714 -105.028,49.126 -105.028,111.035c0,64.28 53.77,116.468 120,116.468c66.23,0 120,-52.188 120,-116.468c0,-54.992 -25.914,-86.091 -81.335,-97.525c0,0 22.78,2.083 46.405,31.22c16.782,20.698 22.748,47.177 22.748,66.305c0,57.755 -48.311,104.645 -107.818,104.645c-59.507,0 -107.818,-46.89 -107.818,-104.645c0,-28.15 11.451,-53.703 30.079,-72.511c19.618,-19.808 47.195,-32.135 77.739,-32.135Z" style="fill:#000;"/><path d="M120,26.007c-55.494,0 -100.481,43.663 -100.481,97.525c0,53.825 45.024,97.524 100.481,97.524c55.457,0 100.481,-43.699 100.481,-97.524c0,-46.047 -17.854,-87.951 -64.26,-97.525c0,0 24.311,20.328 41.626,43.947c11.375,15.516 12.434,37.174 12.434,53.578c0,48.361 -40.454,87.624 -90.281,87.624c-49.827,0 -90.281,-39.263 -90.281,-87.624c0,-27.47 9.185,-45.023 23.516,-59.664c5.799,-5.924 16.368,-16.387 28.539,-22.073c10.74,-5.017 23.563,-5.647 23.563,-5.647l14.663,-10.141Z" style="fill:#000;"/><path d="M105.028,1.681l45.305,21.489l-45.305,26.221" style="fill:none;stroke-width:5.89px;stroke:#000;"/></g><text x="81.309px" y="192.444px" style="font-family:'Metamorphous';font-size:165.636px;fill:#000;">S</text></g></svg>