<?xml version="1.0" encoding="UTF-8" standalone="no"?><!DOCTYPE svg PUBLIC "-//W3C//DTD SVG 1.1//EN" "http://www.w3.org/Graphics/SVG/1.1/DTD/svg11.dtd"><svg width="100%" height="100%" viewBox="0 0 240 240" version="1.1" xmlns="http://www.w3.org/2000/svg" xmlns:xlink="http://www.w3.org/1999/xlink" xml:space="preserve" style="fill-rule:evenodd;clip-rule:evenodd;stroke-linecap:round;stroke-linejoin:round;stroke-miterlimit:1.41421;"><g><path d="M120,23.855c0,0 -11.512,-6.19 -13.765,-6.052c-57.759,3.518 -96.561,46.534 -96.561,105.178c0,60.891 49.435,110.327 110.326,110.327c60.891,0 110.326,-49.436 110.326,-110.327c0,-52.091 -23.824,-81.55 -74.777,-92.381c0,0 20.943,1.974 42.663,29.573c15.43,19.607 20.915,44.69 20.915,62.808c0,54.71 -44.417,99.127 -99.127,99.127c-54.71,0 -99.127,-44.417 -99.127,-99.127c0,-26.664 10.529,-50.87 27.655,-68.686c18.036,-18.763 43.391,-30.44 71.472,-30.44Z" style="fill:#000;"/><path d="M120,30.6c-51.021,0 -92.381,41.361 -92.381,92.381c0,50.987 41.394,92.382 92.381,92.382c50.987,0 92.381,-41.395 92.381,-92.382c0,-43.618 -16.414,-83.312 -59.08,-92.381c0,0 22.352,19.256 38.27,41.629c10.458,14.698 11.432,35.214 11.432,50.752c0,45.811 -37.192,83.004 -83.003,83.004c-45.811,0 -83.003,-37.193 -83.003,-83.004c0,-26.02 8.444,-42.648 21.62,-56.516c5.332,-5.612 15.049,-15.524 26.239,-20.91c9.873,-4.752 21.663,-5.349 21.663,-5.349l13.481,-9.606Z" style="fill:#000;"/><path d="M106.235,7.557l41.653,20.356l-41.653,24.838" style="fill:none;stroke-width:5.5px;stroke:#000;"/><text x="81.309px" y="185.289px" style="font-family:'Metamorphous';font-size:156.901px;fill:#000;">S</text></g></svg>